<svg xmlns="http://www.w3.org/2000/svg" fill="none" viewBox="0 0 16 16" id="Algo--Streamline-Cryptocurrency-Black" height="16" width="16">
  <desc>
    Algo Streamline Icon: https://streamlinehq.com
  </desc>
  <path fill="#000000" d="M8 0.16c4.330133333333333 0 7.840000000000001 3.5098666666666665 7.840000000000001 7.840000000000001S12.330133333333334 15.840000000000002 8 15.840000000000002 0.16 12.330133333333334 0.16 8 3.6698666666666666 0.16 8 0.16Zm1.515587878787879 3.4300121212121213h-1.176l-0.02744242424242424 0.04116363636363637 -1.1005575757575756 1.9051151515151517 -1.128 1.9531151515151515 -1.120630303030303 1.9462787878787877 -1.1279515151515151 1.9531636363636367h1.347490909090909l1.1284848484848486 -1.9531636363636367 1.1274666666666668 -1.9462787878787877 1.1211151515151516 -1.9531151515151515 0.18623030303030302 -0.3096727272727273 0.08179393939393939 0.3096727272727273 0.34400000000000003 1.285769696969697 -0.3851151515151515 0.6673454545454546 -1.1275151515151516 1.9462787878787877 -1.1211151515151516 1.9531636363636367h1.347490909090909l1.128 -1.9531636363636367 0.5845818181818182 -1.0108606060606062 0.27534545454545456 1.0108606060606062 0.5223757575757575 1.9531636363636367h1.210278787878788l-0.5223272727272728 -1.9531636363636367 -0.5228606060606061 -1.9462787878787877 -0.13716363636363635 -0.5022545454545455 0.8388363636363636 -1.4508606060606062h-1.2240000000000002l-0.04164848484848485 -0.14453333333333332 -0.42627878787878787 -1.5954424242424243 -0.05488484848484848 -0.2063030303030303Z" stroke-width="0.4848"></path>
</svg>